<svg width="35" height="36" viewBox="0 0 35 36" fill="none" xmlns="http://www.w3.org/2000/svg">
<path d="M29.6604 2.61562L26.246 4.55628L17.257 0L14.692 1.40075L21.639 7.16096L15.2097 10.8173L11.9978 10.1647L9.97266 11.0928L14.9622 13.3427L13.9496 18.2535L15.8228 16.9991L16.9477 13.922L23.4278 10.3558L24.6991 19.2937L27.2305 17.8311L28.0574 7.80132L31.4999 5.90567C32.8949 5.14069 33.8906 3.79071 34.2055 2.23251C32.7149 1.68143 31.0443 1.82774 29.6606 2.615L29.6604 2.61562Z" fill="#FBFBFB"/>
<path d="M5.23673 18.1692C6.3674 17.4604 7.55992 16.8642 8.79752 16.3635C10.0237 15.8686 11.3175 15.4522 12.572 15.1823L12.5945 15.1766C12.6056 15.1766 12.617 15.1709 12.6339 15.1655C12.9319 15.0811 13.1065 14.7662 13.0221 14.4624C12.9376 14.1644 12.6227 13.9898 12.319 14.0742C10.9522 14.4679 9.69775 14.9855 8.44901 15.5874C7.21141 16.1892 6.02459 16.898 4.91646 17.7023C3.81947 18.5292 2.81265 19.4742 1.94636 20.5318C1.09699 21.6063 0.45578 22.8268 0 24.098C0.539942 22.855 1.26014 21.7073 2.16003 20.7118C3.08247 19.7443 4.12297 18.9003 5.2368 18.1692L5.23673 18.1692Z" fill="#FBFBFB"/>
<path d="M3.78565 16.9654C4.39318 16.4366 5.05122 15.9696 5.73201 15.5592C6.4126 15.1485 7.13277 14.7942 7.86951 14.5073C8.59511 14.2203 9.37693 13.9785 10.0972 13.8435L10.1254 13.8378C10.1479 13.8321 10.1648 13.8267 10.1873 13.821C10.4854 13.7309 10.6542 13.4103 10.5641 13.1122C10.474 12.8142 10.1534 12.6453 9.85531 12.7354C8.9948 12.9998 8.25203 13.3373 7.50959 13.7366C6.77285 14.1303 6.06945 14.586 5.41147 15.0923C4.75344 15.5986 4.13449 16.1499 3.58344 16.7629C3.01527 17.359 2.53724 18.0285 2.08716 18.7035C2.62141 18.0849 3.16704 17.483 3.78571 16.9653L3.78565 16.9654Z" fill="#FBFBFB"/>
<path d="M10.0066 16.9594C9.23587 17.2295 8.49343 17.5781 7.80714 18.0113C7.12085 18.4389 6.47401 18.9226 5.90579 19.4908C5.32079 20.0364 4.84274 20.6776 4.38696 21.3188C4.91577 20.7281 5.46141 20.1656 6.09148 19.7044C6.70471 19.2206 7.3796 18.8325 8.07152 18.5062C8.76895 18.1799 9.49455 17.938 10.2373 17.7749C10.9686 17.6117 11.7561 17.5219 12.4424 17.5387H12.476H12.5436C12.8585 17.5105 13.0836 17.2349 13.061 16.9255C13.0328 16.6106 12.7573 16.3855 12.4478 16.408C11.5591 16.4868 10.7884 16.6893 10.0066 16.9594L10.0066 16.9594Z" fill="#FBFBFB"/>
<path d="M26.8708 19.3501C27.1127 20.1995 27.2701 21.0658 27.332 21.9432H22.1346C22.0841 19.7269 21.7632 17.5951 21.1953 15.7217H23.0573L22.8941 14.5911H20.8072C20.6497 14.1692 20.4752 13.7699 20.2898 13.3817L19.2886 13.9331C19.3898 14.1467 19.4911 14.3663 19.5812 14.5911H18.0849L17.8656 14.7092L17.4942 15.7217H19.9917C20.5935 17.5668 20.9424 19.7043 20.9929 21.9431H15.5758V18.5286L14.4452 19.2879V21.9486L2.09234 21.9488C1.77744 21.9488 1.52417 22.2018 1.52417 22.517C1.52987 29.948 7.57674 36.0001 15.0133 36.0001C18.6696 36.0001 22.2249 34.5038 24.7726 31.8883C27.259 29.34 28.5807 26.01 28.4963 22.5115V22.5003C28.4626 21.2348 28.2544 19.986 27.8776 18.771L26.8708 19.3501ZM4.697 29.2951C3.51018 27.4951 2.77881 25.3689 2.67758 23.0794H7.8921C7.93716 25.3518 8.27459 27.4671 8.82594 29.2951H4.697ZM5.53504 30.4258H9.2025C9.82117 32.057 10.6255 33.4127 11.5708 34.3745C9.18592 33.6827 7.09324 32.2877 5.53504 30.4258ZM14.4511 34.8078C12.8704 34.4872 11.4473 32.8391 10.4516 30.4258H14.4511V34.8078ZM14.4511 29.2952H10.0355C9.44479 27.484 9.07368 25.3465 9.02297 23.0795H14.4512L14.4511 29.2952ZM15.5818 23.0795H21.01C20.9595 25.3519 20.5881 27.484 19.9974 29.2952H15.5818L15.5818 23.0795ZM15.5818 34.8078V30.4258H19.5812C18.5855 32.8391 17.1622 34.4872 15.5818 34.8078ZM23.9688 31.1009C22.45 32.6591 20.5318 33.7841 18.4619 34.3802C19.4012 33.4184 20.2112 32.0627 20.8302 30.4315H24.5653C24.3682 30.6566 24.177 30.8816 23.9688 31.1009ZM25.4201 29.2952H21.2069C21.7583 27.4615 22.09 25.3519 22.1408 23.0795H27.3607C27.31 25.3071 26.6463 27.4446 25.4201 29.2952Z" fill="#FBFBFB"/>
</svg>
